<mxfile host="app.diagrams.net" modified="2024-02-23T18:31:31.702Z" agent="Mozilla/5.0 (X11; Linux x86_64; rv:109.0) Gecko/20100101 Firefox/114.0" etag="_QNhvyMDN3SmrLiS0zKS" version="23.1.5" type="device">
  <diagram name="Página-1" id="32taSJfWVkDJaCt206M8">
    <mxGraphModel dx="1434" dy="789" grid="1" gridSize="10" guides="1" tooltips="1" connect="1" arrows="1" fold="1" page="1" pageScale="1" pageWidth="827" pageHeight="1169" math="0" shadow="0">
      <root>
        <mxCell id="0" />
        <mxCell id="1" parent="0" />
        <mxCell id="15RsOx3e9Loeef2UlqU9-1" value="&lt;font style=&quot;font-size: 25px;&quot;&gt;Consulta de bateria&lt;/font&gt;" style="rounded=1;whiteSpace=wrap;html=1;" vertex="1" parent="1">
          <mxGeometry x="230" y="80" width="300" height="60" as="geometry" />
        </mxCell>
        <mxCell id="15RsOx3e9Loeef2UlqU9-10" style="rounded=0;orthogonalLoop=1;jettySize=auto;html=1;exitX=0.5;exitY=1;exitDx=0;exitDy=0;entryX=0.5;entryY=0;entryDx=0;entryDy=0;" edge="1" parent="1" source="15RsOx3e9Loeef2UlqU9-2" target="15RsOx3e9Loeef2UlqU9-3">
          <mxGeometry relative="1" as="geometry" />
        </mxCell>
        <mxCell id="15RsOx3e9Loeef2UlqU9-2" value="1" style="ellipse;whiteSpace=wrap;html=1;aspect=fixed;" vertex="1" parent="1">
          <mxGeometry x="340" y="200" width="80" height="80" as="geometry" />
        </mxCell>
        <mxCell id="15RsOx3e9Loeef2UlqU9-11" style="rounded=0;orthogonalLoop=1;jettySize=auto;html=1;exitX=0;exitY=1;exitDx=0;exitDy=0;entryX=1;entryY=0;entryDx=0;entryDy=0;" edge="1" parent="1" source="15RsOx3e9Loeef2UlqU9-3" target="15RsOx3e9Loeef2UlqU9-4">
          <mxGeometry relative="1" as="geometry" />
        </mxCell>
        <mxCell id="15RsOx3e9Loeef2UlqU9-13" style="rounded=0;orthogonalLoop=1;jettySize=auto;html=1;exitX=1;exitY=1;exitDx=0;exitDy=0;" edge="1" parent="1" source="15RsOx3e9Loeef2UlqU9-3" target="15RsOx3e9Loeef2UlqU9-5">
          <mxGeometry relative="1" as="geometry" />
        </mxCell>
        <mxCell id="15RsOx3e9Loeef2UlqU9-3" value="2" style="ellipse;whiteSpace=wrap;html=1;aspect=fixed;" vertex="1" parent="1">
          <mxGeometry x="340" y="330" width="80" height="80" as="geometry" />
        </mxCell>
        <mxCell id="15RsOx3e9Loeef2UlqU9-12" style="rounded=0;orthogonalLoop=1;jettySize=auto;html=1;exitX=0.5;exitY=1;exitDx=0;exitDy=0;entryX=0;entryY=0.5;entryDx=0;entryDy=0;" edge="1" parent="1" source="15RsOx3e9Loeef2UlqU9-4" target="15RsOx3e9Loeef2UlqU9-6">
          <mxGeometry relative="1" as="geometry" />
        </mxCell>
        <mxCell id="15RsOx3e9Loeef2UlqU9-4" value="3" style="ellipse;whiteSpace=wrap;html=1;aspect=fixed;" vertex="1" parent="1">
          <mxGeometry x="240" y="440" width="80" height="80" as="geometry" />
        </mxCell>
        <mxCell id="15RsOx3e9Loeef2UlqU9-14" style="rounded=0;orthogonalLoop=1;jettySize=auto;html=1;exitX=0.5;exitY=1;exitDx=0;exitDy=0;" edge="1" parent="1" source="15RsOx3e9Loeef2UlqU9-5" target="15RsOx3e9Loeef2UlqU9-7">
          <mxGeometry relative="1" as="geometry" />
        </mxCell>
        <mxCell id="15RsOx3e9Loeef2UlqU9-5" value="4" style="ellipse;whiteSpace=wrap;html=1;aspect=fixed;" vertex="1" parent="1">
          <mxGeometry x="440" y="440" width="80" height="80" as="geometry" />
        </mxCell>
        <mxCell id="15RsOx3e9Loeef2UlqU9-6" value="8" style="ellipse;whiteSpace=wrap;html=1;aspect=fixed;" vertex="1" parent="1">
          <mxGeometry x="330" y="850" width="80" height="80" as="geometry" />
        </mxCell>
        <mxCell id="15RsOx3e9Loeef2UlqU9-16" style="rounded=0;orthogonalLoop=1;jettySize=auto;html=1;exitX=0.15;exitY=0.938;exitDx=0;exitDy=0;exitPerimeter=0;" edge="1" parent="1" source="15RsOx3e9Loeef2UlqU9-7" target="15RsOx3e9Loeef2UlqU9-8">
          <mxGeometry relative="1" as="geometry" />
        </mxCell>
        <mxCell id="15RsOx3e9Loeef2UlqU9-22" style="rounded=0;orthogonalLoop=1;jettySize=auto;html=1;exitX=1;exitY=1;exitDx=0;exitDy=0;entryX=0;entryY=0;entryDx=0;entryDy=0;" edge="1" parent="1" source="15RsOx3e9Loeef2UlqU9-7" target="15RsOx3e9Loeef2UlqU9-9">
          <mxGeometry relative="1" as="geometry" />
        </mxCell>
        <mxCell id="15RsOx3e9Loeef2UlqU9-7" value="5" style="ellipse;whiteSpace=wrap;html=1;aspect=fixed;" vertex="1" parent="1">
          <mxGeometry x="440" y="570" width="80" height="80" as="geometry" />
        </mxCell>
        <mxCell id="15RsOx3e9Loeef2UlqU9-17" style="rounded=0;orthogonalLoop=1;jettySize=auto;html=1;exitX=0;exitY=1;exitDx=0;exitDy=0;entryX=1;entryY=0;entryDx=0;entryDy=0;" edge="1" parent="1" source="15RsOx3e9Loeef2UlqU9-8" target="15RsOx3e9Loeef2UlqU9-6">
          <mxGeometry relative="1" as="geometry">
            <mxPoint x="440" y="820" as="targetPoint" />
          </mxGeometry>
        </mxCell>
        <mxCell id="15RsOx3e9Loeef2UlqU9-8" value="6" style="ellipse;whiteSpace=wrap;html=1;aspect=fixed;" vertex="1" parent="1">
          <mxGeometry x="380" y="700" width="80" height="80" as="geometry" />
        </mxCell>
        <mxCell id="15RsOx3e9Loeef2UlqU9-19" style="rounded=0;orthogonalLoop=1;jettySize=auto;html=1;exitX=0;exitY=0.5;exitDx=0;exitDy=0;entryX=1;entryY=0.5;entryDx=0;entryDy=0;" edge="1" parent="1" source="15RsOx3e9Loeef2UlqU9-9" target="15RsOx3e9Loeef2UlqU9-6">
          <mxGeometry relative="1" as="geometry" />
        </mxCell>
        <mxCell id="15RsOx3e9Loeef2UlqU9-9" value="7" style="ellipse;whiteSpace=wrap;html=1;aspect=fixed;" vertex="1" parent="1">
          <mxGeometry x="590" y="720" width="80" height="80" as="geometry" />
        </mxCell>
        <mxCell id="15RsOx3e9Loeef2UlqU9-21" value="&lt;font style=&quot;font-size: 20px;&quot;&gt;9 conectores&lt;/font&gt;&lt;div style=&quot;font-size: 20px;&quot; align=&quot;left&quot;&gt;&lt;font style=&quot;font-size: 20px;&quot;&gt;8 módulos&lt;br&gt;&lt;/font&gt;&lt;/div&gt;&lt;div style=&quot;font-size: 20px;&quot; align=&quot;left&quot;&gt;&lt;font style=&quot;font-size: 20px;&quot;&gt;(9-8)+2=3 caminos&lt;font style=&quot;font-size: 20px;&quot;&gt;&lt;br&gt;&lt;/font&gt;&lt;/font&gt;&lt;/div&gt;" style="text;html=1;align=left;verticalAlign=middle;whiteSpace=wrap;rounded=0;" vertex="1" parent="1">
          <mxGeometry x="80" y="990" width="200" height="80" as="geometry" />
        </mxCell>
      </root>
    </mxGraphModel>
  </diagram>
</mxfile>
